<?xml version="1.0" encoding="UTF-8"?><svg id="Layer_1" xmlns="http://www.w3.org/2000/svg" viewBox="0 0 730.96 103.11"><defs><style>.cls-1{fill:#221f20;}</style></defs><path class="cls-1" d="m618.48,63.49c.29.53.52.97.77,1.41,2.98,5.2,6.2,10.25,9.4,15.31,2.82,4.48,5.6,8.97,8.16,13.61.2.37.4.74.58,1.07-.11.33-.34.26-.51.26-4.52,0-9.03,0-13.55.02-.54,0-.84-.21-1.12-.64-3.03-4.57-5.95-9.21-8.84-13.87-2.73-4.39-5.46-8.79-8.18-13.19-.14-.23-.31-.45-.44-.69-.18-.35-.44-.53-.84-.49-.15.01-.31,0-.47,0-5.57,0-11.14,0-16.7,0-1.13,0-1.04-.07-1.04,1.1,0,8.72,0,17.43,0,26.15,0,1.66.19,1.48-1.48,1.56-2.14.1-4.28.11-6.42.07-1.71-.03-3.43-.02-5.14-.03-.62,0-.63-.03-.65-.67,0-.27,0-.54,0-.82,0-8.64,0-17.28,0-25.92,0-1.46.16-1.31-1.3-1.36-3.5-.11-7.01-.16-10.51-.11-2.8.04-5.61.02-8.41.04-.26,0-.54-.08-.81.12-.03.43.2.81.35,1.2,1.46,3.73,2.91,7.46,4.39,11.18,2,5.02,4.02,10.03,5.85,15.11.13.36.25.73.36,1.06-.23.25-.48.18-.7.18-4.17,0-8.33,0-12.5,0-.08,0-.16,0-.23,0-.36.04-.57-.14-.7-.47-.41-1.05-.85-2.09-1.28-3.13-3.27-7.99-6.34-16.05-9.32-24.14-.45-1.23-.13-1.12-1.63-1.12-8.14,0-16.27,0-24.41,0-1.43,0-1.11-.15-1.66,1.13-2.58,5.92-4.85,11.96-7.1,18-1.05,2.8-2.07,5.61-3.11,8.42-.12.33-.26.65-.38.98-.07.21-.21.31-.43.32-.19,0-.39.01-.58.01-4.24,0-8.49,0-12.73,0-.12,0-.23,0-.35,0-.4-.02-.51-.14-.39-.49.1-.29.23-.58.34-.87,2.38-6.21,4.96-12.33,7.46-18.49,1.08-2.66,2.13-5.34,3.25-7.99.58-1.37.71-2.78.69-4.23-.02-1.32-.11-2.64-.22-3.96-.1-1.32-.14-2.64-.05-3.96.04-.56.14-.64.73-.65.93,0,1.87-.03,2.8,0,.54.02.84-.16,1.05-.67.84-2.05,1.73-4.08,2.57-6.13,3.31-8.01,6.4-16.11,9.6-24.16,1.45-3.65,2.95-7.28,4.43-10.91.1-.25.21-.5.32-.75.07-.15.21-.23.37-.24.15-.02.31,0,.47,0,1.75-.02,3.5-.03,5.26-.06,1.64-.03,3.27.06,4.9.12.5.02.76.22.95.67,1.05,2.55,2.14,5.09,3.19,7.64,3.22,7.84,6.19,15.77,9.31,23.65,1.31,3.29,2.65,6.56,3.98,9.83.1.25.21.5.32.75.07.15.21.23.37.24.23.01.47.01.7.01,7.9,0,15.81,0,23.71,0,.23,0,.47,0,.7-.01.22,0,.36-.12.36-.36,0-.31,0-.62,0-.93,0-3.62,0-7.24,0-10.86,0-9.81,0-19.61,0-29.42,0-1.44-.21-1.31,1.3-1.31,3.04,0,6.07-.01,9.11,0,6.5.03,13-.03,19.5-.19,2.22-.05,4.44-.05,6.66.06,2.34.11,4.65.35,6.9,1.06,5.16,1.63,9.42,4.58,12.79,8.8,2.8,3.51,4.76,7.46,5.74,11.87.45,2.03.56,4.09.52,6.15-.06,3.01-.47,5.97-1.43,8.83-1.98,5.9-5.71,10.36-11.07,13.5-.57.33-1.16.64-1.75.93-.55.28-1.12.53-1.79.85Zm-32.8-24.57c.04,4.16.06,8.33-.1,12.49-.03.74-.04,1.48-.05,2.22,0,.49.06.56.51.57.31.01.62,0,.93,0,3.74,0,7.47,0,11.21,0,1.64,0,3.27.05,4.9.17,1.83.14,3.66.13,5.49.08,3.36-.1,6.05-1.54,8.17-4.11.67-.81,1.25-1.69,1.73-2.63,2.26-4.51,2.77-9.22,1.34-14.05-2-6.78-7.4-10.03-13.12-10.27-1.87-.08-3.73-.13-5.6-.05-1.94.08-3.89.17-5.83.23-3,.1-5.99.14-8.99.01-.49-.02-.55.04-.57.51-.01.23,0,.47,0,.7,0,4.71,0,9.42,0,14.12Zm-72.72,15.55c.26.01.53.03.8.03,2.84.01,5.68,0,8.52.04,3.19.03,6.38,0,9.57-.09.39-.01.78-.03,1.17-.05.25-.02.35-.15.28-.38-.07-.22-.17-.44-.25-.65-1.51-3.95-3.03-7.9-4.53-11.86-1.58-4.18-3.13-8.37-4.7-12.54-.14-.38-.19-.83-.59-1.14-3.44,8.81-6.87,17.6-10.3,26.39-.02.06.02.15.04.26Z"/><path class="cls-1" d="m305.47,53.32c.08,13.47,0,26.93-.12,40.4,0,.27,0,.55-.01.82-.02.43-.11.52-.57.53-.74.01-1.48,0-2.22,0-3.15,0-6.31,0-9.46,0-.31,0-.62,0-.93-.02-.18,0-.29-.11-.3-.28-.02-.35-.02-.7-.02-1.05,0-11.29,0-22.57,0-33.86,0-.35,0-.7-.02-1.05,0-.17-.13-.28-.3-.29-.27-.02-.54-.03-.82-.03-13.08,0-26.16,0-39.25,0-1.31,0-1.15-.07-1.19,1.22-.28,9.1-.17,18.21-.13,27.32,0,2.33-.01,4.67-.02,7,0,.19,0,.39,0,.58,0,.27-.1.44-.4.44-.16,0-.31,0-.47,0-3.93,0-7.86,0-11.8,0-.12,0-.23,0-.35,0-.27,0-.44-.1-.44-.4,0-.23,0-.47,0-.7-.02-5.76-.02-11.52-.05-17.28-.03-5.64.05-11.29.15-16.93.02-1.43.18-1.26-1.2-1.26-12.26,0-24.53,0-36.79,0-.49,0-1.01.15-1.47-.15-.02-.46-.05-.93-.05-1.39,0-2.72-.02-5.45,0-8.17,0-.77-.09-1.56.25-2.29.73-.17,1.47-.07,2.21-.07,11.88,0,23.75,0,35.63,0,1.44,0,1.33.18,1.33-1.29,0-10.7,0-21.4,0-32.11,0-.31,0-.62,0-.93.02-.44.08-.52.57-.52.97-.01,1.95,0,2.92,0,2.88,0,5.76,0,8.64,0,.27,0,.55,0,.82,0,.42.02.49.07.5.46.01.35,0,.7,0,1.05,0,10.62,0,21.25,0,31.87,0,.35,0,.7,0,1.05,0,.28.17.41.44.42.31,0,.62,0,.93,0,12.93,0,25.85,0,38.78,0,.08,0,.16,0,.23,0,1.22,0,1.11.12,1.16-1.13.23-5.48.18-10.97.18-16.46,0-5.37-.02-10.74-.02-16.11,0-1.31-.13-1.16,1.21-1.16,3.74,0,7.48,0,11.21,0,.27,0,.54,0,.82,0,.3,0,.4.17.4.44,0,.27,0,.54,0,.82,0,13.5,0,27.01,0,40.51Z"/><path class="cls-1" d="m649.61,56.34c-.07-16.62,0-30.08.17-43.55.02-1.36-.15-1.26,1.25-1.26,8.68,0,17.37,0,26.05,0,2.53,0,5.06.06,7.58.33,4.63.49,9.16,1.4,13.4,3.38,9.64,4.5,16.18,11.79,19.46,21.94,1.06,3.27,1.76,6.61,2.14,10.02.13,1.16.25,2.32.36,3.48.05.5.04,1-.03,1.51-.22,1.78-.21,3.57,0,5.36.03.31.1.61.03.93-.45,2.25-.84,4.51-1.35,6.75-.95,4.19-2.42,8.19-4.61,11.91-1.99,3.39-4.48,6.35-7.5,8.87-5.03,4.2-10.72,6.99-17.21,8.09-3.15.54-6.32.89-9.52.91-4.52.04-9.03.04-13.55.05-5.18,0-10.36,0-15.54,0-1.24,0-1.15.04-1.15-1.13,0-13.58,0-27.17,0-37.6Zm13.5-2.91c0,9.5,0,18.99,0,28.49,0,.35,0,.7,0,1.05,0,.23.14.34.36.36.12,0,.23.01.35.01,5.64.21,11.29.3,16.92-.24,2.91-.28,5.78-.78,8.57-1.69,5.32-1.73,9.46-4.95,12.37-9.75,1.52-2.51,2.71-5.16,3.49-7.99.31-1.12.63-2.25.69-3.42.09-1.71.19-3.42.28-5.13.23-4.27-.17-8.48-1.25-12.61-2.11-8.08-7.05-13.71-14.77-16.89-3.64-1.5-7.46-2.17-11.38-2.29-2.06-.06-4.13-.03-6.19.05-2.88.11-5.76.17-8.64.1-.12,0-.23-.01-.35,0-.26,0-.44.11-.45.41,0,.35,0,.7,0,1.05,0,9.5,0,18.99,0,28.49Z"/><path class="cls-1" d="m364.8,52.95c.4-.21.84-.16,1.26-.17,1.91-.05,3.81-.1,5.72-.1,7.01,0,14.02,0,21.02,0,.19,0,.39.02.58.03.14,0,.2.13.23.23.03.11.03.23.03.35,0,.31,0,.62,0,.93,0,13.08,0,26.15,0,39.23,0,.35,0,.7,0,1.05-.01.43-.11.51-.57.53-.19,0-.39,0-.58,0-3.11,0-6.23,0-9.34,0-.19,0-.39,0-.58,0-.4-.02-.49-.1-.5-.47-.01-.27,0-.54,0-.82,0-2.37,0-4.75,0-7.12,0-.3,0-.6-.01-.85-.27-.15-.36.03-.47.11-.13.09-.23.2-.35.31-1.71,1.54-3.52,2.95-5.44,4.21-3.62,2.36-7.52,4.05-11.76,4.92-.92.19-1.83.33-2.77.35-2.65.07-5.29.08-7.93-.26-7.24-.94-13.71-3.67-19.3-8.4-5.63-4.75-9.59-10.67-12.23-17.51-1.52-3.94-2.51-8.01-2.96-12.21-.2-1.86-.12-3.73-.02-5.6.14-2.53.38-5.04.85-7.53,1.46-7.83,4.63-14.81,10.13-20.65,3.79-4.02,8.28-7.04,13.28-9.34,1.7-.78,3.44-1.43,5.2-2.06.89-.32,1.84-.3,2.75-.47.31-.06.63-.05.92-.15,1.34-.48,2.75-.52,4.14-.57,2.57-.1,5.14-.08,7.7.21,7.71.87,14.62,3.55,20.37,8.91,2.67,2.49,4.84,5.37,6.56,8.59.3.55.3.58-.18.96-1.06.85-2.13,1.7-3.23,2.51-1.98,1.44-3.99,2.85-5.99,4.27-.46.32-.5.32-.81-.17-.9-1.42-1.86-2.78-2.92-4.07-3.86-4.7-8.77-7.58-14.76-8.67-5.96-1.09-11.52-.07-16.74,2.96-3.79,2.2-6.76,5.21-8.94,9.01-2.27,3.96-3.79,8.18-4.45,12.69-1.17,8.02.25,15.56,4.44,22.54,2.07,3.45,4.73,6.36,8.05,8.65,4.02,2.77,8.47,4.17,13.35,4.27,5.51.11,10.52-1.41,15.09-4.44,2.97-1.97,5.63-4.28,7.89-7.05.36-.44.54-.89.53-1.48-.03-2.26-.01-4.51-.01-6.77,0-.23,0-.47-.02-.7-.01-.17-.12-.29-.29-.3-.35-.02-.7-.02-1.05-.02-4.91,0-9.81,0-14.72,0-1.42,0-1.25.15-1.25-1.23,0-2.49,0-4.98,0-7.47,0-.39-.06-.78.07-1.16Z"/><path class="cls-1" d="m479.14,35.69c.04,4.79.09,9.57.11,14.36.02,3.07,0,6.15-.27,9.22-.47,5.41-1.53,10.7-3.53,15.76-3.25,8.22-8.95,14.08-17.03,17.67-2.26,1-4.6,1.67-7.02,2.08-2.69.46-5.4.72-8.13.68-5.34-.07-10.51-.99-15.51-2.93-6.47-2.52-11.34-6.82-14.69-12.88-1.88-3.39-3.21-6.99-4.15-10.74-.8-3.17-1.32-6.39-1.69-9.64-.5-4.3-.62-8.61-.51-12.94.21-8.13.28-16.27.24-24.4-.01-3.15,0-6.31,0-9.46,0-.27,0-.55,0-.82.02-.43.11-.51.58-.53.12,0,.23,0,.35,0,3.89,0,7.79,0,11.68,0,.08,0,.16,0,.23,0,.59.02.61.03.67.56.04.43.07.85.08,1.28.05,2.69.12,5.37.12,8.06,0,6.7-.27,13.39-.42,20.08-.1,4.28-.06,8.56.16,12.84.2,3.97.64,7.91,1.59,11.78.55,2.23,1.28,4.4,2.29,6.47,1.38,2.82,3.35,5.13,5.9,6.96,1.52,1.09,3.14,2.01,4.82,2.83.24.12.5.22.76.27,2.99.55,5.98,1.05,9.04.91,6.53-.31,11.73-3.05,15.45-8.47,1.89-2.76,3.14-5.81,3.99-9.03,1.04-3.93,1.6-7.93,1.46-12-.05-1.48-.13-2.95-.18-4.43-.03-.93-.07-1.87-.07-2.8,0-11.4,0-22.81,0-34.21,0-.27.01-.54.02-.81,0-.14.11-.21.22-.23.15-.03.31-.04.46-.04,4.09,0,8.18,0,12.27,0,.12,0,.23,0,.35.02.22.02.36.14.36.37,0,.35,0,.7,0,1.05,0,6.77,0,13.54,0,20.32v2.8s-.01,0-.02,0Z"/><path class="cls-1" d="m87.67,53.32c0-13.47,0-26.93,0-40.4,0-1.47-.19-1.38,1.37-1.38,17.87,0,35.74,0,53.62,0,1.46,0,1.28-.12,1.28,1.34,0,3.11,0,6.23,0,9.34,0,.31,0,.62-.03.93-.01.18-.14.28-.31.29-.39.02-.78.02-1.17.02-13.24,0-26.48,0-39.72,0-.49,0-1.09-.22-1.44.16-.3.33-.14.89-.16,1.35-.06,1.52-.13,3.03-.13,4.55-.01,5.53,0,11.05,0,16.58,0,.16,0,.31.01.47,0,.18.11.29.28.3.35.02.7.02,1.05.02,5.45,0,10.9,0,16.35,0,1.06,0,1.04-.09,1.04.99,0,3.11,0,6.23,0,9.34,0,.16,0,.31,0,.47,0,.29-.13.42-.41.43-.97.05-1.94.14-2.92.16-2.37.03-4.75.03-7.13.03-2.3,0-4.59-.01-6.89-.02-.31,0-.62,0-.93.01-.37.02-.44.1-.46.51,0,.12,0,.23,0,.35,0,7.71,0,15.41,0,23.12,0,.16,0,.31,0,.47,0,.23.12.36.34.39.23.02.47.03.7.03,2.06.05,4.13.12,6.19.13,11.1.01,22.19.01,33.29.01.93,0,1.87,0,2.8.01.6,0,.62.04.64.68,0,.12,0,.23,0,.35,0,3.23,0,6.46,0,9.69,0,.23,0,.47-.02.7,0,.18-.11.28-.29.29-.27.01-.54.02-.82.02-18.34,0-36.68,0-55.02,0-1.3,0-1.15.07-1.15-1.23,0-13.51,0-27.01,0-40.52Z"/><path class="cls-1" d="m213.68,69.94c1.12.42,2.08.93,3.03,1.46,1.53.85,3.03,1.74,4.55,2.61,1.08.62,2.16,1.23,3.25,1.83.24.14.34.3.23.57-.11.25-.21.5-.32.75-1.58,3.59-3.96,6.58-6.92,9.13-2.5,2.14-5.28,3.85-8.23,5.27-2.56,1.23-5.22,2.2-7.94,3.05-.71.22-1.45.28-2.18.38-2.39.35-4.79.6-7.19.77-4.59.32-8.99-.56-13.26-2.16-6.79-2.54-12.42-6.72-17.02-12.29-4.47-5.42-7.57-11.56-9.39-18.34-.24-.9-.37-1.83-.5-2.75-.61-4.22-.77-8.45-.29-12.68.85-7.39,3.54-14.05,7.85-20.09,2.67-3.74,5.79-7.02,9.56-9.66,5.06-3.54,10.65-5.74,16.78-6.57,2.63-.36,5.27-.53,7.92-.39,8.03.43,15.32,2.88,21.65,7.95,3.26,2.61,5.9,5.75,7.76,9.52.51,1.03.65.86-.36,1.7-1.08.9-2.23,1.69-3.41,2.45-1.86,1.21-3.76,2.35-5.53,3.69-.36.27-.46.26-.75-.14-.44-.6-.85-1.21-1.26-1.82-.45-.68-.89-1.37-1.32-2.06-1.03-1.63-2.34-3-3.87-4.17-2.92-2.24-6.19-3.69-9.83-4.32-2.24-.38-4.48-.58-6.74-.47-7.73.4-13.99,3.62-18.62,9.85-2.44,3.28-4.03,7-5.14,10.92-.88,3.12-1.46,6.29-1.38,9.55.21,7.84,2.6,14.89,7.74,20.9,1.86,2.17,3.99,4.04,6.38,5.61,4.19,2.74,8.8,3.84,13.76,3.58,2.38-.12,4.72-.47,7-1.19,4.17-1.32,7.58-3.73,10.36-7.07,1.15-1.38,2.15-2.86,3.06-4.4.18-.3.36-.6.58-.96Z"/><path class="cls-1" d="m48.94,59.28c0,11.4,0,22.8,0,34.2,0,.35,0,.7,0,1.05-.01.49-.04.52-.55.52-2.22,0-4.44,0-6.66,0-1.95,0-3.89,0-5.84,0-.54,0-.57-.05-.59-.61,0-.35,0-.7,0-1.05,0-22.76,0-45.53,0-68.29,0-1.73.24-1.51-1.57-1.56-5.29-.15-10.59-.16-15.88-.1-3,.03-6,.02-8.99.02-.31,0-.62-.01-.93-.03-.17-.01-.29-.11-.31-.29-.02-.19-.03-.39-.03-.58,0-3.39,0-6.77,0-10.16,0-.16,0-.31.01-.47.01-.23.16-.36.36-.39.27-.03.54-.02.82-.02,22.31,0,44.61,0,66.92,0,1.22,0,1.14-.03,1.14,1.14,0,3.23,0,6.46,0,9.69,0,.23,0,.47-.01.7-.01.22-.15.36-.37.37-.35.02-.7.02-1.05.02-8.33,0-16.66,0-24.99,0-.35,0-.7,0-1.05.01-.27.01-.42.17-.42.45,0,.35,0,.7,0,1.05,0,11.44,0,22.88,0,34.32Z"/></svg>