<svg width="117" height="94" viewBox="0 0 117 94" xmlns="http://www.w3.org/2000/svg" xmlns:xlink="http://www.w3.org/1999/xlink">
    <defs>
        <path id="jjc6u5j4ea" d="M0 0h117v94H0z"/>
    </defs>
    <g fill="none" fill-rule="evenodd">
        <mask id="dth9e9e1qb" fill="#fff">
            <use xlink:href="#jjc6u5j4ea"/>
        </mask>
        <g mask="url(#dth9e9e1qb)" fill="#FFF" fill-rule="nonzero">
            <path d="M115.778 11H34.222C28.586 11 24 16.401 24 23.04v62.92C24 92.599 28.586 98 34.222 98h81.556C121.414 98 126 92.599 126 85.96V23.04c0-6.639-4.586-12.04-10.222-12.04zm-81.556 4.143h81.556c3.698 0 6.705 3.542 6.705 7.897v8.674H27.517V23.04c0-4.355 3.008-7.897 6.705-7.897zm81.556 78.714H34.222c-3.698 0-6.705-3.542-6.705-7.897V35.857h94.966V85.96c0 4.355-3.008 7.897-6.705 7.897z"/>
            <path d="M119 24.5c0 4.667-7 4.667-7 0s7-4.667 7 0M108 24.5c0 4.667-7 4.667-7 0s7-4.667 7 0M97 24.5c0 4.667-7 4.667-7 0s7-4.667 7 0M95.224 55.5h-5.317c0-5.788-5.566-10.5-12.409-10.5-6.842 0-12.408 4.712-12.408 10.5h-5.317A1.76 1.76 0 0 0 58 57.25v16.73C58 77.3 60.734 80 64.097 80h26.806C94.26 80 97 77.3 97 73.98V57.25a1.768 1.768 0 0 0-1.777-1.75h.001zm-17.725-7c4.883 0 8.862 3.141 8.862 7H68.636c0-3.859 3.98-7 8.863-7zM93.45 73.98c0 1.39-1.143 2.52-2.552 2.52H64.098c-1.41 0-2.552-1.13-2.552-2.52V59H93.45v14.98z"/>
        </g>
    </g>
</svg>
