<svg width="101" height="92" viewBox="0 0 101 92" xmlns="http://www.w3.org/2000/svg">
    <path d="M99.894 52.6c.043-.125.082-.25.105-.375 0-.083-.02-.188-.043-.293-.02-.168-.02-.356-.062-.52v-.02l-14.02-40.02 13.082-7.48c1-.563 1.355-1.832.77-2.832-.563-1-1.856-1.356-2.833-.77L82.311 8.622a2.083 2.083 0 0 0-.937 2.5l2.5 7.145c-2.606 1.52-5.625 2.144-8.645 1.707l-.5-.063-15.98-2.293a47.192 47.192 0 0 0-13.27 0l-17.062 2.438a14.187 14.187 0 0 1-7.812-1.145l2.207-5.644a2.082 2.082 0 0 0-.938-2.582L3.124.267C2.081-.296.812.06.27 1.06c-.563 1.02-.207 2.289.793 2.832l17.168 9.543L.144 59.662c-.418 1.062.105 2.27 1.187 2.707.25.086.5.129.75.129.832 0 1.625-.5 1.938-1.332l1.605-4.082 4.27 2.98-.727.723a8.36 8.36 0 0 0-2.418 5.875 8.36 8.36 0 0 0 2.418 5.875 7.614 7.614 0 0 0 5.418 2.23c.918 0 1.832-.187 2.707-.5.27 1.669 1.02 3.25 2.293 4.52a7.614 7.614 0 0 0 5.418 2.23c.832 0 1.645-.167 2.457-.437a8.251 8.251 0 0 0 2.313 4.668 7.52 7.52 0 0 0 5.394 2.25h.02c1.562 0 3.043-.48 4.312-1.332l2.606 2.606c1.644 1.644 3.793 2.519 5.937 2.519 1.125 0 2.23-.25 3.27-.73 2.144-1.02 3.668-2.856 4.27-5.043 1.437 1.25 3.187 1.918 4.956 1.918a6.865 6.865 0 0 0 3.875-1.168c1.52-1.043 2.563-2.5 3.02-4.188 1.144.543 2.355.832 3.562.832 1.48 0 2.957-.418 4.23-1.25a7.887 7.887 0 0 0 3.356-4.793 7.74 7.74 0 0 0 3.856 1.043c.168 0 .332 0 .48-.02 2.063-.124 3.895-1.062 5.125-2.644a7.158 7.158 0 0 0 1.52-4.437c0-1.918-.75-3.75-2.125-5.125l-1.02-1.02 12.875-11.043s0-.02.02-.02c.144-.124.25-.292.355-.457.043-.062.106-.125.145-.187.043-.086.043-.234.082-.36zm-87.77 16.98a4.15 4.15 0 0 1-1.207-2.918c0-1.082.437-2.168 1.207-2.918l1.23-1.231 6.332 4.438-.105.085-2.54 2.543a3.447 3.447 0 0 1-4.917 0zm10.418 6.25a4.133 4.133 0 0 1 0-5.832l.375-.399 5.394 5.398-.832.833c-1.375 1.355-3.586 1.355-4.937 0zm12.645 7.519c-.02 0-.02 0 0 0a3.42 3.42 0 0 1-2.457-1.02 4.116 4.116 0 0 1-1.23-2.917c0-.356.062-.708.167-1.043l4.75 4.769a4.01 4.01 0 0 1-1.23.211zM84.73 72.704c-.625.793-1.48 1.02-2.082 1.043-1.043.063-2.125-.332-2.856-1.082L55.647 48.52a2.075 2.075 0 0 0-2.937 0 2.075 2.075 0 0 0 0 2.938L73.542 72.29a3.788 3.788 0 0 1 1.105 2.687c0 1.313-.625 2.48-1.707 3.188-1.48.98-3.644.644-5.062-.77L49.4 58.918a2.075 2.075 0 0 0-2.938 0 2.075 2.075 0 0 0 0 2.937L62.608 78a3.07 3.07 0 0 1 .918 2.168c0 .606-.187 1.75-1.437 2.606-1.145.793-2.856.52-3.98-.582L41.064 65.149a2.075 2.075 0 0 0-2.937 0 2.075 2.075 0 0 0 0 2.937l12.5 12.5a3.788 3.788 0 0 1 1.105 2.688c0 1.52-.832 2.812-2.207 3.48-1.394.668-3.23.27-4.457-.98L24.424 65.129c-.082-.082-.168-.168-.27-.23L7.218 53.044l11.855-30.312a18.456 18.456 0 0 0 9.937 1.355l16.582-2.375c-.207.168-.418.313-.625.5l-6.562 5.793a8.921 8.921 0 0 0-2.98 6.332 8.755 8.755 0 0 0 2.581 6.5c3.23 3.23 8.293 3.48 11.812.582l4.125-3.375 30.562 30.562a3.07 3.07 0 0 1 .918 2.168c-.05.742-.281 1.387-.695 1.93h.003zm-22.086-31.75c2.23 0 4.48-.543 6.543-1.644l5.75-3.106a2.078 2.078 0 1 0-1.957-3.668l-5.77 3.106c-3.77 2.043-8.543 1.332-11.562-1.707l-.125-.125a2.102 2.102 0 0 0-2.793-.145l-5.582 4.582a4.62 4.62 0 0 1-6.23-.312 4.577 4.577 0 0 1-1.356-3.418 4.638 4.638 0 0 1 1.563-3.332l6.562-5.793a14.553 14.553 0 0 1 11.707-3.5l14.707 2.105 6.856.98c.105.02.187.02.293.02 1.02 0 1.918-.75 2.062-1.793v-.105a18.31 18.31 0 0 0 1.957-.895L95.5 51.411 83.456 61.723 62.644 40.954z" fill="#EEF0F3" fill-rule="nonzero"/>
</svg>
