<svg width="117" height="94" viewBox="0 0 117 94" xmlns="http://www.w3.org/2000/svg" xmlns:xlink="http://www.w3.org/1999/xlink">
    <defs>
        <path id="8wosw4q84a" d="M0 0h117v94H0z"/>
    </defs>
    <g fill="none" fill-rule="evenodd">
        <mask id="yo6ehf6p2b" fill="#fff">
            <use xlink:href="#8wosw4q84a"/>
        </mask>
        <g mask="url(#yo6ehf6p2b)" fill="#EEF0F3" fill-rule="nonzero" stroke="#FFF">
            <path d="M110.66 98.034a2.395 2.395 0 0 1-2.395 2.394H33.82c-4.293 0-7.82-3.527-7.82-7.82v-49.48c0-5.383 4.164-9.52 9.52-9.52h16.085l7.723-28.831a2.394 2.394 0 0 1 2.93-1.696l30.55 8.188a2.394 2.394 0 0 1 1.696 2.93l-5.203 19.41h18.957a2.395 2.395 0 0 1 2.395 2.394V98.03l.007.004zM39.039 59.936h29.289a2.395 2.395 0 0 1 2.394 2.394v23.621a2.395 2.395 0 0 1-2.394 2.395h-29.29a2.395 2.395 0 0 1-2.394-2.395v-23.62a2.395 2.395 0 0 1 2.395-2.395zm26.895 4.793h-24.5v18.828h24.5V64.729zm7.254-53.762a14.392 14.392 0 0 1-12.81 8.406l-7.632 28.488h27.789l5.77-21.535a14.426 14.426 0 0 1-6.887-13.688l-6.23-1.671zm-11.492 3.5A9.595 9.595 0 0 0 68.473 9.7L63.34 8.326l-1.644 6.14zM84.14 13.9a9.572 9.572 0 0 0 3.48 7.516l1.645-6.14-5.13-1.376h.005zM50.329 38.4H35.524c-6.22 0-6.22 9.457 0 9.457h12.27l2.535-9.457zm35.168 9.457h20.375V38.4H88.028l-2.535 9.457h.004zm5.418 23.887h4.234c3.156 0 3.156 4.793 0 4.793h-4.234c-3.157 0-3.157-4.793 0-4.793zm-6.098-7.125h21.059V52.65H35.528c-1.852 0-3.426-.418-4.727-1.125v41.086a3.027 3.027 0 0 0 3.028 3.028h72.047v-11.97h-21.06a2.395 2.395 0 0 1-2.394-2.394v-14.25a2.395 2.395 0 0 1 2.395-2.394v-.012zm21.059 4.793H87.212v9.457h18.664v-9.457z"/>
        </g>
    </g>
</svg>
