<svg width="117" height="94" viewBox="0 0 117 94" xmlns="http://www.w3.org/2000/svg" xmlns:xlink="http://www.w3.org/1999/xlink">
    <defs>
        <path id="2qnxpkr92a" d="M0 0h117v94H0z"/>
    </defs>
    <g fill="none" fill-rule="evenodd">
        <mask id="emahtxnwpb" fill="#fff">
            <use xlink:href="#2qnxpkr92a"/>
        </mask>
        <g mask="url(#emahtxnwpb)" fill="#FFF" fill-rule="nonzero">
            <path d="M107.688 5H35.811c-.863 0-1.562.7-1.562 1.563v4.687h-4.688a1.562 1.562 0 1 0 0 3.125h4.688v12.5h-4.688a1.562 1.562 0 1 0 0 3.125h4.688v12.5h-4.688a1.562 1.562 0 1 0 0 3.125h4.688v12.5h-4.688a1.562 1.562 0 1 0 0 3.125h4.688v12.5h-4.688a1.562 1.562 0 1 0 0 3.125h4.688v12.5h-4.688a1.562 1.562 0 1 0 0 3.125h4.688v4.688a1.564 1.564 0 0 0 1.563 1.562h71.875a1.564 1.564 0 0 0 1.562-1.562V6.563A1.564 1.564 0 0 0 107.688 5zM37.374 92.5h4.688a1.562 1.562 0 1 0 0-3.125h-4.688v-12.5h4.688a1.562 1.562 0 1 0 0-3.125h-4.688v-12.5h4.688a1.562 1.562 0 1 0 0-3.125h-4.688v-12.5h4.688a1.562 1.562 0 1 0 0-3.125h-4.688V30h4.688a1.562 1.562 0 1 0 0-3.125h-4.688v-12.5h4.688a1.562 1.562 0 1 0 0-3.125h-4.688V8.125h12.5v87.5h-12.5V92.5zm68.75 3.125H53.002v-87.5h53.125v87.5z"/>
            <path d="M60.813 44.063h1.563v26.562a1.564 1.564 0 0 0 1.563 1.563h31.25a1.564 1.564 0 0 0 1.562-1.563V44.063h1.563a1.564 1.564 0 0 0 1.562-1.563v-9.374a1.564 1.564 0 0 0-1.562-1.563h-37.5c-.864 0-1.563.7-1.563 1.562V42.5a1.564 1.564 0 0 0 1.563 1.563zm32.813 25H65.5v-25h7.813v9.375c0 .574.32 1.106.828 1.375a1.564 1.564 0 0 0 1.563-.078l3.859-2.547 3.828 2.547c.48.316 1.09.344 1.598.074.504-.273.82-.797.824-1.371v-9.375h7.813v25zm-17.189-25h6.25v6.453l-2.265-1.562a1.561 1.561 0 0 0-1.719 0l-2.266 1.562v-6.453zm20.313-3.125h-9.376v-6.25h9.376v6.25zm-12.5-6.25v6.25h-9.376v-6.25h9.376zm-21.876 0h9.375v6.25h-9.374v-6.25z"/>
            <path d="M84.25 59.687a1.564 1.564 0 0 0 1.563 1.563h3.125a1.562 1.562 0 1 0 0-3.125h-3.125c-.863 0-1.563.699-1.563 1.562zM88.938 62.813h-3.126a1.562 1.562 0 1 0 0 3.125h3.126a1.562 1.562 0 1 0 0-3.125z"/>
        </g>
    </g>
</svg>
