<svg width="14" height="13" viewBox="0 0 14 13" fill="none" xmlns="http://www.w3.org/2000/svg">
<path d="M6.42932 1.01322C6.60893 0.460435 7.39098 0.460437 7.57059 1.01322L8.66136 4.37027C8.74168 4.61748 8.97206 4.78486 9.23199 4.78486H12.7618C13.343 4.78486 13.5847 5.52863 13.1145 5.87027L10.2588 7.94503C10.0485 8.09782 9.96051 8.36864 10.0408 8.61586L11.1316 11.9729C11.3112 12.5257 10.6785 12.9854 10.2083 12.6437L7.35263 10.569C7.14233 10.4162 6.85758 10.4162 6.64728 10.569L3.79161 12.6437C3.32138 12.9854 2.6887 12.5257 2.86831 11.9729L3.95908 8.61586C4.0394 8.36864 3.95141 8.09782 3.74112 7.94503L0.885441 5.87027C0.415213 5.52863 0.65688 4.78486 1.23811 4.78486H4.76792C5.02785 4.78486 5.25823 4.61748 5.33855 4.37027L6.42932 1.01322Z" fill="#FFA600"/>
</svg>
