<svg width="13" height="13" viewBox="0 0 13 13" fill="none" xmlns="http://www.w3.org/2000/svg">
<path d="M5.91077 1.01322C6.09038 0.460435 6.87242 0.460437 7.05204 1.01322L8.14281 4.37027C8.22313 4.61748 8.4535 4.78486 8.71344 4.78486H12.2432C12.8245 4.78486 13.0661 5.52863 12.5959 5.87027L9.74024 7.94503C9.52995 8.09782 9.44196 8.36864 9.52228 8.61586L10.613 11.9729C10.7927 12.5257 10.16 12.9854 9.68974 12.6437L6.83407 10.569C6.62378 10.4162 6.33902 10.4162 6.12873 10.569L3.27306 12.6437C2.80283 12.9854 2.17014 12.5257 2.34975 11.9729L3.44052 8.61586C3.52085 8.36864 3.43285 8.09782 3.22256 7.94503L0.366887 5.87027C-0.103342 5.52863 0.138325 4.78486 0.719559 4.78486H4.24936C4.5093 4.78486 4.73967 4.61748 4.82 4.37027L5.91077 1.01322Z" fill="#FFA600"/>
</svg>
