<svg width="14" height="13" viewBox="0 0 14 13" fill="none" xmlns="http://www.w3.org/2000/svg">
<path d="M6.39221 1.01322C6.57182 0.460435 7.35387 0.460437 7.53348 1.01322L8.62425 4.37027C8.70458 4.61748 8.93495 4.78486 9.19488 4.78486H12.7247C13.3059 4.78486 13.5476 5.52863 13.0774 5.87027L10.2217 7.94503C10.0114 8.09782 9.9234 8.36864 10.0037 8.61586L11.0945 11.9729C11.2741 12.5257 10.6414 12.9854 10.1712 12.6437L7.31552 10.569C7.10523 10.4162 6.82047 10.4162 6.61018 10.569L3.7545 12.6437C3.28427 12.9854 2.65159 12.5257 2.8312 11.9729L3.92197 8.61586C4.00229 8.36864 3.9143 8.09782 3.70401 7.94503L0.848332 5.87027C0.378104 5.52863 0.619771 4.78486 1.201 4.78486H4.73081C4.99075 4.78486 5.22112 4.61748 5.30144 4.37027L6.39221 1.01322Z" fill="#FFA600"/>
</svg>
