<svg width="40" height="41" viewBox="0 0 40 41" fill="none" xmlns="http://www.w3.org/2000/svg">
<rect x="0.5" y="1.02441" width="39" height="39" rx="19.5" stroke="#D5D5D5"/>
<path fill-rule="evenodd" clip-rule="evenodd" d="M28 15.7971C28 17.6046 26.5348 19.0699 24.7273 19.0699C23.7086 19.0699 22.7986 18.6045 22.1984 17.8747L18.4531 19.7473C18.5135 19.9958 18.5455 20.2553 18.5455 20.5223C18.5455 20.7907 18.5132 21.0515 18.4522 21.301L22.1984 23.1741C22.7987 22.4443 23.7086 21.979 24.7273 21.979C26.5348 21.979 28 23.4442 28 25.2517C28 27.0592 26.5348 28.5244 24.7273 28.5244C22.9198 28.5244 21.4545 27.0592 21.4545 25.2517C21.4545 24.984 21.4867 24.7238 21.5473 24.4748L17.8004 22.6014C17.2001 23.3303 16.2907 23.795 15.2727 23.795C13.4653 23.795 12 22.3298 12 20.5223C12 18.7149 13.4653 17.2496 15.2727 17.2496C16.2921 17.2496 17.2026 17.7156 17.8028 18.4463L21.5473 16.574C21.4867 16.325 21.4545 16.0648 21.4545 15.7971C21.4545 13.9897 22.9198 12.5244 24.7273 12.5244C26.5348 12.5244 28 13.9897 28 15.7971ZM22.9112 15.7971C22.9112 16.8001 23.7243 17.6132 24.7273 17.6132C25.7303 17.6132 26.5433 16.8001 26.5433 15.7971C26.5433 14.7941 25.7303 13.981 24.7273 13.981C23.7243 13.981 22.9112 14.7941 22.9112 15.7971ZM22.9112 25.2517C22.9112 26.2547 23.7243 27.0678 24.7273 27.0678C25.7303 27.0678 26.5433 26.2547 26.5433 25.2517C26.5433 24.2487 25.7303 23.4356 24.7273 23.4356C23.7243 23.4356 22.9112 24.2487 22.9112 25.2517ZM15.2727 22.3385C14.2697 22.3385 13.4566 21.5254 13.4566 20.5223C13.4566 19.5193 14.2697 18.7062 15.2727 18.7062C16.2757 18.7062 17.0888 19.5193 17.0888 20.5223C17.0888 21.5254 16.2757 22.3385 15.2727 22.3385Z" fill="#0F0F0F"/>
</svg>
