<svg width="16" height="17" viewBox="0 0 16 17" fill="none" xmlns="http://www.w3.org/2000/svg">
<path fill-rule="evenodd" clip-rule="evenodd" d="M16 3.79714C16 5.60462 14.5348 7.06987 12.7273 7.06987C11.7086 7.06987 10.7986 6.60447 10.1984 5.87469L6.45315 7.74732C6.51348 7.99576 6.54545 8.25532 6.54545 8.52231C6.54545 8.79067 6.51316 9.05147 6.45225 9.301L10.1984 11.1741C10.7987 10.4443 11.7086 9.97896 12.7273 9.97896C14.5348 9.97896 16 11.4442 16 13.2517C16 15.0592 14.5348 16.5244 12.7273 16.5244C10.9198 16.5244 9.45455 15.0592 9.45455 13.2517C9.45455 12.984 9.48669 12.7238 9.54735 12.4748L5.80039 10.6014C5.20015 11.3303 4.29071 11.795 3.27273 11.795C1.46525 11.795 0 10.3298 0 8.52231C0 6.71485 1.46525 5.2496 3.27273 5.2496C4.29208 5.2496 5.20259 5.71564 5.80281 6.44626L9.54727 4.57401C9.48669 4.325 9.45455 4.06482 9.45455 3.79714C9.45455 1.98967 10.9198 0.524414 12.7273 0.524414C14.5348 0.524414 16 1.98967 16 3.79714ZM10.9112 3.79714C10.9112 4.80015 11.7243 5.61324 12.7273 5.61324C13.7303 5.61324 14.5433 4.80015 14.5433 3.79714C14.5433 2.79414 13.7303 1.98105 12.7273 1.98105C11.7243 1.98105 10.9112 2.79414 10.9112 3.79714ZM10.9112 13.2517C10.9112 14.2547 11.7243 15.0678 12.7273 15.0678C13.7303 15.0678 14.5433 14.2547 14.5433 13.2517C14.5433 12.2487 13.7303 11.4356 12.7273 11.4356C11.7243 11.4356 10.9112 12.2487 10.9112 13.2517ZM3.27273 10.3385C2.26972 10.3385 1.45663 9.52536 1.45663 8.52231C1.45663 7.51932 2.26972 6.70623 3.27273 6.70623C4.27573 6.70623 5.08882 7.51932 5.08882 8.52231C5.08882 9.52536 4.27573 10.3385 3.27273 10.3385Z" fill="#0F0F0F"/>
</svg>
