<svg width="21" height="19" viewBox="0 0 21 19" fill="none" xmlns="http://www.w3.org/2000/svg">
<path d="M13.2738 15.2021C13.0285 15.3123 12.774 15.408 12.5172 15.4868C12.2982 15.554 12.1751 15.786 12.2422 16.0051C12.2969 16.1836 12.4612 16.2984 12.6388 16.2984C12.679 16.2984 12.72 16.2925 12.7605 16.2801C13.0501 16.1913 13.3372 16.0833 13.6139 15.9589C13.8229 15.865 13.9162 15.6194 13.8223 15.4105C13.7284 15.2015 13.4827 15.1082 13.2738 15.2021Z" fill="#0D0D0F"/>
<path d="M9.15278 2.85557C9.18145 2.85557 9.21063 2.8526 9.23977 2.84635C9.50215 2.79034 9.77118 2.7503 10.0393 2.72721C10.2676 2.70756 10.4367 2.50659 10.4171 2.27827C10.3974 2.04999 10.1967 1.88096 9.96817 1.90046C9.66586 1.92647 9.3625 1.97171 9.06661 2.03483C8.84251 2.08264 8.69965 2.30307 8.74743 2.52717C8.78903 2.72209 8.96118 2.85557 9.15278 2.85557Z" fill="#0D0D0F"/>
<path d="M11.9561 2.84341C12.2192 2.89891 12.4814 2.97161 12.7355 3.05946C12.7804 3.07501 12.8261 3.08235 12.8711 3.08235C13.0431 3.08235 13.2039 2.97458 13.2632 2.80298C13.3381 2.58641 13.2233 2.35016 13.0067 2.27528C12.72 2.1761 12.4242 2.09415 12.1274 2.03149C11.903 1.98415 11.6831 2.12763 11.6358 2.3518C11.5885 2.57594 11.7319 2.79606 11.9561 2.84341Z" fill="#0D0D0F"/>
<path d="M6.51732 4.03512C6.60212 4.03512 6.68774 4.00918 6.76153 3.95539C6.9788 3.79683 7.20809 3.65027 7.44282 3.51988C7.64313 3.40859 7.71532 3.15602 7.60403 2.9557C7.49274 2.75539 7.24024 2.68317 7.03985 2.79449C6.77536 2.94141 6.51712 3.10648 6.27236 3.28504C6.08728 3.42008 6.04669 3.67965 6.18173 3.86476C6.26302 3.97609 6.38927 4.03512 6.51732 4.03512Z" fill="#0D0D0F"/>
<path d="M10.6206 15.7715C10.62 15.7715 10.6195 15.7715 10.6189 15.7715H10.6053C10.3356 15.7715 10.064 15.7549 9.79793 15.722C9.57043 15.6937 9.36336 15.8554 9.33527 16.0828C9.30715 16.3102 9.46871 16.5173 9.69609 16.5454C9.99582 16.5825 10.3017 16.6013 10.6053 16.6013H10.6222C10.8513 16.6004 11.0363 16.4139 11.0354 16.1847C11.0345 15.9562 10.849 15.7715 10.6206 15.7715Z" fill="#0D0D0F"/>
<path d="M7.94946 15.2076C7.70415 15.0981 7.46306 14.9718 7.23282 14.8325C7.03677 14.7138 6.78173 14.7765 6.66306 14.9726C6.54443 15.1686 6.60716 15.4237 6.80318 15.5424C7.06271 15.6994 7.33454 15.8417 7.61106 15.9652C7.66602 15.9898 7.72349 16.0014 7.78005 16.0014C7.93876 16.0014 8.0902 15.9098 8.15907 15.7556C8.25251 15.5465 8.15868 15.3011 7.94946 15.2076Z" fill="#0D0D0F"/>
<path d="M17.3464 10.9778C17.1284 10.9072 16.8944 11.0268 16.8239 11.2448C16.7412 11.5004 16.6415 11.7536 16.5274 11.9973C16.4303 12.2048 16.5198 12.4518 16.7273 12.5489C16.7842 12.5755 16.844 12.5881 16.9029 12.5881C17.059 12.5881 17.2084 12.4997 17.2789 12.349C17.4075 12.0742 17.52 11.7886 17.6134 11.5003C17.6839 11.2823 17.5644 11.0484 17.3464 10.9778Z" fill="#0D0D0F"/>
<path d="M5.24847 12.9758C5.11702 12.7881 4.85835 12.7425 4.67065 12.8738C4.48296 13.0053 4.43733 13.264 4.5687 13.4517C4.74229 13.6995 4.93315 13.9393 5.136 14.1643C5.21796 14.2552 5.33085 14.3013 5.44425 14.3013C5.54327 14.3013 5.64264 14.2661 5.72198 14.1945C5.89217 14.0411 5.90569 13.7788 5.75221 13.6086C5.57214 13.4089 5.40261 13.1959 5.24847 12.9758Z" fill="#0D0D0F"/>
<path d="M16.0531 13.5666C15.8827 13.4136 15.6203 13.4276 15.4672 13.5981C15.2876 13.7982 15.0936 13.9893 14.8907 14.1659C14.7179 14.3164 14.6998 14.5785 14.8503 14.7513C14.9323 14.8455 15.0475 14.8937 15.1633 14.8937C15.26 14.8937 15.3571 14.8602 15.4356 14.7917C15.664 14.5928 15.8824 14.3777 16.0847 14.1525C16.2377 13.982 16.2236 13.7197 16.0531 13.5666Z" fill="#0D0D0F"/>
<path d="M20.4443 8.23879L17.0437 2.34873C16.9868 2.25002 16.8917 2.17912 16.7808 2.15259C16.67 2.12615 16.5531 2.14642 16.4576 2.20873L16.3508 2.27841C14.7372 0.941268 12.7271 0.213379 10.605 0.213379C8.19464 0.213379 5.92856 1.15201 4.22418 2.85638C3.83024 3.25033 3.47825 3.67486 3.16837 4.1238L2.78176 4.02099C2.56063 3.96216 2.3336 4.09357 2.27438 4.31458L0.514152 10.8841C0.485598 10.9905 0.500637 11.1039 0.555793 11.1993C0.610988 11.2947 0.701808 11.3642 0.808253 11.3925L1.91583 11.687C2.32841 13.1588 3.1138 14.5076 4.22418 15.6181C5.92859 17.3225 8.19468 18.2611 10.605 18.2611C13.0154 18.2611 15.2815 17.3225 16.9859 15.6181C18.6897 13.9142 19.6283 11.649 19.6288 9.23953L20.3118 8.79371C20.4963 8.67324 20.5545 8.42957 20.4443 8.23879ZM10.6051 1.04322C12.4907 1.04322 14.2293 1.68392 15.6155 2.75849L14.248 3.65126C14.0636 3.77169 14.0054 4.01532 14.1156 4.20614L14.2313 4.40657L13.5191 4.81778C13.2654 4.96427 12.9821 5.01419 12.6294 4.97423L9.4246 4.12286C8.88769 3.97892 8.33121 4.28544 8.13039 4.83571C8.12347 4.85482 8.11785 4.87438 8.11379 4.89431C8.06156 5.14786 8.07011 5.40001 8.12902 5.63481L8.09004 5.62434C7.68293 5.51524 7.24836 5.49595 6.83328 5.56841C6.53629 5.62036 6.22535 5.60645 5.93406 5.52841L5.13969 5.31552L5.19906 5.09388C5.22762 4.98747 5.21258 4.87407 5.15742 4.77868C5.10223 4.68333 5.01141 4.6138 4.90496 4.58552L4.0311 4.35314C5.52582 2.34611 7.91578 1.04322 10.6051 1.04322ZM15.8156 8.06602C15.6519 7.78254 15.3884 7.57989 15.0736 7.49559L9.45792 5.98528C9.08445 5.8852 8.85324 5.4979 8.92027 5.09438C8.97027 4.98364 9.07695 4.8888 9.21058 4.92454C9.21058 4.92454 12.481 5.79204 12.4996 5.79434C13.0458 5.86262 13.5149 5.77821 13.9338 5.53634L14.646 5.12513L16.9892 9.18375L16.0321 9.64488C15.9508 9.54906 15.8546 9.465 15.7455 9.39723C15.8321 9.27922 15.8985 9.14355 15.9386 8.99379C16.023 8.67902 15.9793 8.34953 15.8156 8.06602ZM10.4117 10.4531L14.1155 11.4456C14.2689 11.5306 14.3511 11.7129 14.3034 11.891C14.2481 12.0974 14.0352 12.2202 13.8287 12.165L9.76003 11.0871C9.5387 11.0278 9.3112 11.1592 9.25187 11.3805C9.19253 11.6018 9.3239 11.8293 9.54523 11.8887L13.0415 12.8255C13.1949 12.9105 13.2772 13.0928 13.2295 13.2709C13.2027 13.3709 13.1386 13.4545 13.0489 13.5062C12.9593 13.558 12.8549 13.5717 12.7549 13.545L6.38465 11.838C6.11004 11.7644 5.8575 11.638 5.63406 11.4621L5.58438 11.4231C5.27219 11.1774 4.91926 11.0006 4.53551 10.8978L3.70352 10.6749L4.92481 6.11708L5.71914 6.32993C6.12617 6.43895 6.56078 6.45833 6.9759 6.38587C7.27297 6.33399 7.5839 6.34782 7.87511 6.42587L14.8589 8.29719C15.0685 8.35336 15.1933 8.56957 15.1364 8.78199C15.0805 8.99 14.8716 9.10867 14.6605 9.05262L14.6596 9.05238C14.6272 9.04367 11.3545 8.1791 11.3545 8.1791C11.133 8.11977 10.9057 8.25117 10.8464 8.47246C10.787 8.69379 10.9184 8.92129 11.1397 8.98063L15.2026 10.0569C15.4122 10.1131 15.5371 10.3293 15.4809 10.5389C15.4257 10.7452 15.2126 10.8682 15.0063 10.8128L10.6264 9.6516C10.4048 9.59215 10.1776 9.72367 10.1183 9.94496C10.059 10.1663 10.1903 10.3938 10.4117 10.4531ZM1.42321 10.6974L2.96876 4.92935L4.28981 5.28059L2.7443 11.0486L1.42321 10.6974ZM10.6051 17.4314C7.03359 17.4314 3.9886 15.1346 2.86926 11.9405L2.9313 11.957C2.967 11.9665 3.00286 11.971 3.03817 11.971C3.22137 11.971 3.38899 11.8487 3.43868 11.6634L3.4888 11.4764L4.32079 11.6993C4.59536 11.7729 4.84785 11.8993 5.07133 12.0752L5.12102 12.1143C5.43317 12.36 5.7861 12.5367 6.16988 12.6395L12.5401 14.3464C12.645 14.3745 12.7514 14.3885 12.8572 14.3885C13.0682 14.3885 13.2763 14.3332 13.4639 14.2248C13.7455 14.0623 13.9469 13.7997 14.031 13.4857C14.0747 13.3226 14.0833 13.1583 14.0613 13.0009C14.5455 12.9473 14.9714 12.6039 15.1049 12.1057C15.1454 11.9546 15.1556 11.8024 15.1395 11.6556C15.6639 11.6411 16.1399 11.2856 16.2825 10.7536C16.3119 10.644 16.3245 10.5339 16.3234 10.4257L17.4053 9.90434L17.5161 10.0962C17.6657 10.3664 18.0342 10.2805 18.1022 10.2362L18.7793 9.79418C18.492 14.0535 14.936 17.4314 10.6051 17.4314ZM18.0156 9.30172L15.0305 4.13134L16.5442 3.14314L19.5293 8.31352L18.0156 9.30172Z" fill="#0D0D0F"/>
</svg>
