<svg width="21" height="19" viewBox="0 0 21 19" fill="none" xmlns="http://www.w3.org/2000/svg">
<path d="M13.2738 15.9398C13.0285 16.0501 12.774 16.1458 12.5172 16.2246C12.2982 16.2918 12.1751 16.5238 12.2422 16.7429C12.2969 16.9214 12.4612 17.0362 12.6388 17.0362C12.679 17.0362 12.72 17.0303 12.7605 17.0179C13.0501 16.9291 13.3372 16.8211 13.6139 16.6967C13.8229 16.6028 13.9162 16.3572 13.8223 16.1482C13.7284 15.9393 13.4827 15.846 13.2738 15.9398Z" fill="#FE4E44"/>
<path d="M9.15278 3.59336C9.18145 3.59336 9.21063 3.5904 9.23977 3.58415C9.50215 3.52813 9.77118 3.48809 10.0393 3.465C10.2676 3.44536 10.4367 3.24438 10.4171 3.01606C10.3974 2.78778 10.1967 2.61876 9.96817 2.63825C9.66586 2.66426 9.3625 2.7095 9.06661 2.77262C8.84251 2.82044 8.69965 3.04087 8.74743 3.26497C8.78903 3.45989 8.96118 3.59336 9.15278 3.59336Z" fill="#FE4E44"/>
<path d="M11.9561 3.5812C12.2192 3.63671 12.4814 3.7094 12.7355 3.79725C12.7804 3.8128 12.8261 3.82014 12.8711 3.82014C13.0431 3.82014 13.2039 3.71237 13.2632 3.54077C13.3381 3.32421 13.2233 3.08796 13.0067 3.01307C12.72 2.91389 12.4242 2.83194 12.1274 2.76929C11.903 2.72194 11.6831 2.86542 11.6358 3.0896C11.5885 3.31374 11.7319 3.53385 11.9561 3.5812Z" fill="#FE4E44"/>
<path d="M6.51732 4.77291C6.60212 4.77291 6.68774 4.74697 6.76153 4.69318C6.9788 4.53463 7.20809 4.38807 7.44282 4.25767C7.64313 4.14639 7.71532 3.89381 7.60403 3.6935C7.49274 3.49318 7.24024 3.42096 7.03985 3.53229C6.77536 3.6792 6.51712 3.84428 6.27236 4.02283C6.08728 4.15787 6.04669 4.41744 6.18173 4.60256C6.26302 4.71389 6.38927 4.77291 6.51732 4.77291Z" fill="#FE4E44"/>
<path d="M10.6206 16.5093C10.62 16.5093 10.6195 16.5093 10.6189 16.5093H10.6053C10.3356 16.5093 10.064 16.4926 9.79793 16.4598C9.57043 16.4315 9.36336 16.5932 9.33527 16.8206C9.30715 17.048 9.46871 17.2551 9.69609 17.2832C9.99582 17.3203 10.3017 17.3391 10.6053 17.3391H10.6222C10.8513 17.3382 11.0363 17.1517 11.0354 16.9225C11.0345 16.694 10.849 16.5093 10.6206 16.5093Z" fill="#FE4E44"/>
<path d="M7.94946 15.9454C7.70415 15.8358 7.46306 15.7096 7.23282 15.5703C7.03677 15.4516 6.78173 15.5143 6.66306 15.7104C6.54443 15.9064 6.60716 16.1615 6.80318 16.2801C7.06271 16.4372 7.33454 16.5795 7.61106 16.703C7.66602 16.7276 7.72349 16.7392 7.78005 16.7392C7.93876 16.7392 8.0902 16.6476 8.15907 16.4934C8.25251 16.2842 8.15868 16.0389 7.94946 15.9454Z" fill="#FE4E44"/>
<path d="M17.3464 11.7156C17.1284 11.645 16.8944 11.7646 16.8239 11.9826C16.7412 12.2382 16.6415 12.4914 16.5274 12.7351C16.4303 12.9426 16.5198 13.1896 16.7273 13.2867C16.7842 13.3133 16.844 13.3259 16.9029 13.3259C17.059 13.3259 17.2084 13.2375 17.2789 13.0868C17.4075 12.812 17.52 12.5264 17.6134 12.2381C17.6839 12.0201 17.5644 11.7862 17.3464 11.7156Z" fill="#FE4E44"/>
<path d="M5.24847 13.7136C5.11702 13.5259 4.85835 13.4803 4.67065 13.6116C4.48296 13.743 4.43733 14.0018 4.5687 14.1895C4.74229 14.4373 4.93315 14.6771 5.136 14.9021C5.21796 14.993 5.33085 15.0391 5.44425 15.0391C5.54327 15.0391 5.64264 15.0039 5.72198 14.9323C5.89217 14.7789 5.90569 14.5166 5.75221 14.3464C5.57214 14.1467 5.40261 13.9337 5.24847 13.7136Z" fill="#FE4E44"/>
<path d="M16.0531 14.3044C15.8827 14.1514 15.6203 14.1654 15.4672 14.3359C15.2876 14.536 15.0936 14.7271 14.8907 14.9037C14.7179 15.0542 14.6998 15.3163 14.8503 15.4891C14.9323 15.5833 15.0475 15.6315 15.1633 15.6315C15.26 15.6315 15.3571 15.598 15.4356 15.5295C15.664 15.3306 15.8824 15.1155 16.0847 14.8903C16.2377 14.7198 16.2236 14.4575 16.0531 14.3044Z" fill="#FE4E44"/>
<path d="M20.4443 8.97658L17.0437 3.08652C16.9868 2.98781 16.8917 2.91691 16.7808 2.89039C16.67 2.86394 16.5531 2.88421 16.4576 2.94652L16.3508 3.01621C14.7372 1.67906 12.7271 0.951172 10.605 0.951172C8.19464 0.951172 5.92856 1.8898 4.22418 3.59417C3.83024 3.98812 3.47825 4.41265 3.16837 4.86159L2.78176 4.75878C2.56063 4.69995 2.3336 4.83136 2.27438 5.05237L0.514152 11.6219C0.485598 11.7283 0.500637 11.8417 0.555793 11.9371C0.610988 12.0325 0.701808 12.102 0.808253 12.1303L1.91583 12.4248C2.32841 13.8966 3.1138 15.2454 4.22418 16.3559C5.92859 18.0603 8.19468 18.9989 10.605 18.9989C13.0154 18.9989 15.2815 18.0603 16.9859 16.3559C18.6897 14.652 19.6283 12.3868 19.6288 9.97733L20.3118 9.53151C20.4963 9.41104 20.5545 9.16737 20.4443 8.97658ZM10.6051 1.78101C12.4907 1.78101 14.2293 2.42172 15.6155 3.49628L14.248 4.38906C14.0636 4.50948 14.0054 4.75312 14.1156 4.94394L14.2313 5.14437L13.5191 5.55558C13.2654 5.70206 12.9821 5.75198 12.6294 5.71202L9.4246 4.86066C8.88769 4.71671 8.33121 5.02323 8.13039 5.57351C8.12347 5.59261 8.11785 5.61218 8.11379 5.6321C8.06156 5.88565 8.07011 6.1378 8.12902 6.37261L8.09004 6.36214C7.68293 6.25304 7.24836 6.23374 6.83328 6.3062C6.53629 6.35815 6.22535 6.34425 5.93406 6.2662L5.13969 6.05331L5.19906 5.83167C5.22762 5.72526 5.21258 5.61187 5.15742 5.51647C5.10223 5.42112 5.01141 5.35159 4.90496 5.32331L4.0311 5.09093C5.52582 3.0839 7.91578 1.78101 10.6051 1.78101ZM15.8156 8.80381C15.6519 8.52034 15.3884 8.31768 15.0736 8.23338L9.45792 6.72307C9.08445 6.623 8.85324 6.23569 8.92027 5.83218C8.97027 5.72144 9.07695 5.62659 9.21058 5.66233C9.21058 5.66233 12.481 6.52983 12.4996 6.53214C13.0458 6.60042 13.5149 6.516 13.9338 6.27413L14.646 5.86292L16.9892 9.92154L16.0321 10.3827C15.9508 10.2869 15.8546 10.2028 15.7455 10.135C15.8321 10.017 15.8985 9.88135 15.9386 9.73158C16.023 9.41682 15.9793 9.08733 15.8156 8.80381ZM10.4117 11.1909L14.1155 12.1834C14.2689 12.2684 14.3511 12.4507 14.3034 12.6288C14.2481 12.8352 14.0352 12.958 13.8287 12.9028L9.76003 11.8249C9.5387 11.7656 9.3112 11.897 9.25187 12.1183C9.19253 12.3396 9.3239 12.5671 9.54523 12.6265L13.0415 13.5633C13.1949 13.6483 13.2772 13.8306 13.2295 14.0087C13.2027 14.1087 13.1386 14.1923 13.0489 14.244C12.9593 14.2958 12.8549 14.3095 12.7549 14.2827L6.38465 12.5758C6.11004 12.5022 5.8575 12.3758 5.63406 12.1999L5.58438 12.1609C5.27219 11.9152 4.91926 11.7384 4.53551 11.6356L3.70352 11.4127L4.92481 6.85487L5.71914 7.06772C6.12617 7.17674 6.56078 7.19612 6.9759 7.12366C7.27297 7.07178 7.5839 7.08561 7.87511 7.16366L14.8589 9.03498C15.0685 9.09116 15.1933 9.30737 15.1364 9.51979C15.0805 9.72779 14.8716 9.84647 14.6605 9.79041L14.6596 9.79018C14.6272 9.78147 11.3545 8.9169 11.3545 8.9169C11.133 8.85756 10.9057 8.98897 10.8464 9.21026C10.787 9.43158 10.9184 9.65908 11.1397 9.71842L15.2026 10.7947C15.4122 10.8509 15.5371 11.0671 15.4809 11.2767C15.4257 11.483 15.2126 11.606 15.0063 11.5506L10.6264 10.3894C10.4048 10.3299 10.1776 10.4615 10.1183 10.6828C10.059 10.9041 10.1903 11.1316 10.4117 11.1909ZM1.42321 11.4352L2.96876 5.66714L4.28981 6.01839L2.7443 11.7864L1.42321 11.4352ZM10.6051 18.1691C7.03359 18.1691 3.9886 15.8724 2.86926 12.6783L2.9313 12.6948C2.967 12.7043 3.00286 12.7088 3.03817 12.7088C3.22137 12.7088 3.38899 12.5865 3.43868 12.4012L3.4888 12.2142L4.32079 12.4371C4.59536 12.5107 4.84785 12.6371 5.07133 12.813L5.12102 12.8521C5.43317 13.0977 5.7861 13.2745 6.16988 13.3773L12.5401 15.0842C12.645 15.1123 12.7514 15.1263 12.8572 15.1263C13.0682 15.1263 13.2763 15.0709 13.4639 14.9626C13.7455 14.8001 13.9469 14.5375 14.031 14.2234C14.0747 14.0604 14.0833 13.8961 14.0613 13.7386C14.5455 13.6851 14.9714 13.3417 15.1049 12.8435C15.1454 12.6924 15.1556 12.5402 15.1395 12.3934C15.6639 12.3789 16.1399 12.0234 16.2825 11.4914C16.3119 11.3818 16.3245 11.2717 16.3234 11.1635L17.4053 10.6421L17.5161 10.834C17.6657 11.1042 18.0342 11.0183 18.1022 10.974L18.7793 10.532C18.492 14.7913 14.936 18.1691 10.6051 18.1691ZM18.0156 10.0395L15.0305 4.86913L16.5442 3.88093L19.5293 9.05131L18.0156 10.0395Z" fill="#FE4E44"/>
</svg>
