<svg width="25" height="20" viewBox="0 0 25 20" fill="none" xmlns="http://www.w3.org/2000/svg">
<path d="M24.3579 6.6454L18.7358 1.02332C18.5464 0.833943 18.2393 0.833943 18.0499 1.02332L15.7702 3.30308C15.6792 3.39402 15.6281 3.51739 15.6281 3.64602C15.6281 3.77464 15.6792 3.89802 15.7702 3.98895L15.9615 4.1803L15.2817 4.86008C15.0396 5.10219 14.7349 5.24431 14.3246 5.3059L10.459 5.3113C10.1926 5.3113 9.94558 5.39666 9.74327 5.54112L9.43619 5.23409L9.62589 5.04439C9.71683 4.95345 9.76797 4.83008 9.76797 4.70145C9.76797 4.57283 9.71683 4.44945 9.62589 4.35852L6.95004 1.68271C6.76071 1.49329 6.45354 1.49329 6.26412 1.68271L0.642078 7.30475C0.551141 7.39568 0.5 7.51906 0.5 7.64768C0.5 7.77631 0.551141 7.89968 0.642078 7.99062L3.31793 10.6665C3.41267 10.7612 3.53679 10.8086 3.66087 10.8086C3.785 10.8086 3.90917 10.7612 4.00381 10.6665L4.16384 10.5064L4.87577 11.2184C5.11076 11.4534 5.29249 11.729 5.41592 12.0375L5.44343 12.1062C5.61588 12.5375 5.8699 12.9227 6.1983 13.2511L11.6498 18.7026C11.9272 18.98 12.2916 19.1187 12.6561 19.1187C13.0205 19.1187 13.3849 18.98 13.6623 18.7026C13.8018 18.563 13.9066 18.4017 13.9764 18.2294C14.4979 18.4583 15.1297 18.3596 15.5561 17.9332C15.6836 17.8057 15.7841 17.6583 15.8547 17.4979C16.394 17.7896 17.0835 17.7079 17.5387 17.2526C17.9944 16.7969 18.0776 16.1076 17.7884 15.5665C17.9435 15.4982 18.0886 15.4008 18.2151 15.2743C18.2156 15.2738 18.2187 15.2707 18.2192 15.2702C18.7768 14.7126 18.7768 13.8053 18.2192 13.2477L18.184 13.2125L19.1011 12.2955C19.3739 12.0227 19.7607 11.5333 19.952 11.0549L19.9813 10.9834C20.1043 10.6757 20.2862 10.4003 20.5219 10.1646L21.2339 9.4526L21.3923 9.61104C21.4832 9.70198 21.6066 9.75312 21.7352 9.75312C21.8639 9.75312 21.9872 9.70198 22.0782 9.61104L24.3579 7.33128C24.5474 7.14195 24.5474 6.83482 24.3579 6.6454ZM3.8209 9.47759C3.82067 9.47782 3.82043 9.47815 3.8201 9.47843L3.66082 9.63771L1.67094 7.64768L6.6071 2.71152L8.59708 4.70145L8.40818 4.89036C8.40794 4.89059 8.40761 4.89083 8.40733 4.89111L3.8209 9.47759ZM17.535 14.5826C17.5345 14.5832 17.5314 14.5862 17.5309 14.5868C17.3527 14.765 17.0712 14.7628 16.8902 14.5817C16.8625 14.554 14.0546 11.7657 14.0546 11.7657C14.0009 11.7121 13.9375 11.6741 13.8702 11.6509C13.7447 11.6075 13.6052 11.6166 13.486 11.6792C13.4438 11.7014 13.4041 11.7303 13.3686 11.7657C13.2621 11.8723 13.2155 12.0161 13.2288 12.1552C13.2303 12.1707 13.2325 12.1861 13.2355 12.2013C13.2414 12.2319 13.2503 12.262 13.2621 12.2912C13.2857 12.3496 13.3212 12.4043 13.3686 12.4517C13.3686 12.4517 16.8835 15.9629 16.9038 15.9777C17.0296 16.1571 17.0129 16.4067 16.8527 16.5668C16.6761 16.7435 16.3886 16.7435 16.2121 16.5668L12.4566 12.8311C12.4211 12.7956 12.3814 12.7667 12.3392 12.7445C12.1562 12.6483 11.9245 12.6772 11.7707 12.8311C11.6562 12.9455 11.6115 13.1027 11.6352 13.2511C11.6508 13.3484 11.6956 13.4419 11.7707 13.5169L14.9401 16.6863C15.0458 16.8621 15.0226 17.0948 14.8701 17.2472C14.7845 17.3328 14.6708 17.3799 14.5498 17.3799C14.4288 17.3799 14.315 17.3328 14.2295 17.2472L10.7404 13.7778C10.551 13.5885 10.2439 13.5885 10.0544 13.7778C10.0426 13.7897 10.0315 13.802 10.0211 13.8147C9.86575 14.0052 9.87686 14.2862 10.0544 14.4638L13.0464 17.4557C13.1521 17.6314 13.1289 17.8641 12.9764 18.0166C12.7997 18.1932 12.5123 18.1932 12.3357 18.0166L6.88423 12.5651C6.64924 12.3301 6.46751 12.0545 6.34413 11.746L6.31662 11.6772C6.14412 11.2459 5.89015 10.8608 5.56174 10.5324L4.84981 9.82043L8.75032 5.91997L9.23158 6.40119C9.22586 6.44876 9.22253 6.49704 9.22235 6.54612C9.22235 6.55029 9.22235 6.55451 9.22244 6.55873C9.24555 7.55979 10.0699 8.37425 11.0624 8.37425L11.9699 8.37026L17.5334 13.9338C17.7127 14.1131 17.7127 14.4049 17.535 14.5826ZM19.8359 9.47909C19.5068 9.80815 19.2527 10.1935 19.082 10.6205L19.0527 10.6927C18.9426 10.9681 18.6804 11.3469 18.4152 11.6121L17.5004 12.529L14.9229 9.95145C15.8193 9.93082 16.3306 9.67671 16.3607 9.66134L15.9189 8.79776L15.9237 8.79532C15.9161 8.79898 15.166 9.15026 13.8528 8.88134L12.5136 7.54217L12.5093 7.54404C12.4191 7.45798 12.2991 7.41851 12.174 7.41851C12.1733 7.41851 12.1726 7.41851 12.1719 7.41851L11.0604 7.41387C10.5951 7.41387 10.2074 7.01904 10.1926 6.54392C10.1959 6.40109 10.3168 6.28142 10.4598 6.28142L14.3604 6.27598C14.3824 6.27598 14.4044 6.27444 14.4262 6.27144C15.0637 6.18322 15.5679 5.94594 15.9677 5.54614L16.6475 4.86641L20.548 8.76701L19.8359 9.47909ZM21.7352 8.58223L21.577 8.42403C21.5769 8.42393 21.5769 8.42388 21.5768 8.42379L16.9904 3.83741C16.9903 3.83731 16.9903 3.83727 16.9902 3.83717L16.7991 3.64606L18.3929 2.05222L23.329 6.98834L21.7352 8.58223Z" fill="#FE4E44"/>
</svg>
