<svg width="20" height="18" viewBox="0 0 20 18" fill="none" xmlns="http://www.w3.org/2000/svg">
<path fill-rule="evenodd" clip-rule="evenodd" d="M9.43025 0.752686C9.74937 0.447672 10.2506 0.447672 10.5698 0.752686L17.1784 7.07092L19.2437 9.0454C19.574 9.36119 19.5867 9.88612 19.2721 10.2178C18.9575 10.5494 18.4346 10.5622 18.1042 10.2463L17.4348 9.6064V15.8654C17.4348 16.7814 16.6951 17.5239 15.7826 17.5239H11.6522H8.34783H4.21739C3.30492 17.5239 2.56522 16.7814 2.56522 15.8654V9.6064L1.89581 10.2463C1.56542 10.5622 1.04253 10.5494 0.727888 10.2178C0.413243 9.88612 0.425996 9.36119 0.756374 9.0454L2.82159 7.07092L9.43025 0.752686ZM4.21739 8.02681V15.8654H7.52174V11.719C7.52174 10.345 8.63126 9.23124 10 9.23124C11.3687 9.23124 12.4783 10.345 12.4783 11.719V15.8654H15.7826V8.02681L10 2.49837L4.21739 8.02681ZM10.8261 15.8654V11.719C10.8261 11.261 10.4562 10.8898 10 10.8898C9.54375 10.8898 9.17391 11.261 9.17391 11.719V15.8654H10.8261Z" fill="#FE4E44"/>
</svg>
