<svg width="20" height="18" viewBox="0 0 20 18" fill="none" xmlns="http://www.w3.org/2000/svg">
<path fill-rule="evenodd" clip-rule="evenodd" d="M9.43025 0.490479C9.74937 0.185465 10.2506 0.185465 10.5698 0.490479L17.1784 6.80872L19.2437 8.7832C19.574 9.09898 19.5867 9.62391 19.2721 9.95562C18.9575 10.2872 18.4346 10.3 18.1042 9.98414L17.4348 9.3442V15.6032C17.4348 16.5192 16.6951 17.2617 15.7826 17.2617H11.6522H8.34783H4.21739C3.30492 17.2617 2.56522 16.5192 2.56522 15.6032V9.3442L1.89581 9.98414C1.56542 10.3 1.04253 10.2872 0.727888 9.95562C0.413243 9.62391 0.425996 9.09898 0.756374 8.7832L2.82159 6.80872L9.43025 0.490479ZM4.21739 7.76461V15.6032H7.52174V11.4568C7.52174 10.0828 8.63126 8.96903 10 8.96903C11.3687 8.96903 12.4783 10.0828 12.4783 11.4568V15.6032H15.7826V7.76461L10 2.23616L4.21739 7.76461ZM10.8261 15.6032V11.4568C10.8261 10.9988 10.4562 10.6276 10 10.6276C9.54375 10.6276 9.17391 10.9988 9.17391 11.4568V15.6032H10.8261Z" fill="#0D0D0F"/>
</svg>
