<svg width="19" height="18" viewBox="0 0 19 18" fill="none" xmlns="http://www.w3.org/2000/svg">
<path d="M1.94444 9.18299H1V5.41828C1 4.37869 1.84568 3.53593 2.88889 3.53593H6.66667M1.94444 9.18299V14.83C1.94444 15.8697 2.79013 16.7124 3.83333 16.7124H15.1667C16.2099 16.7124 17.0556 15.8697 17.0556 14.83V9.18299M1.94444 9.18299H7.61111M6.66667 3.53593V2.59476C6.66667 1.55516 7.51235 0.712402 8.55556 0.712402H10.4444C11.4877 0.712402 12.3333 1.55516 12.3333 2.59476V3.53593M6.66667 3.53593H12.3333M17.0556 9.18299H18V5.41828C18 4.37869 17.1543 3.53593 16.1111 3.53593H12.3333M17.0556 9.18299H11.3889M7.61111 9.18299V7.30064H11.3889V9.18299M7.61111 9.18299V11.0653H11.3889V9.18299" stroke="#FE4E44" stroke-width="1.2" stroke-linecap="round" stroke-linejoin="round"/>
</svg>
