<svg width="19" height="18" viewBox="0 0 19 18" fill="none" xmlns="http://www.w3.org/2000/svg">
<path d="M1.94444 9.44569H1V5.68098C1 4.64138 1.84568 3.79863 2.88889 3.79863H6.66667M1.94444 9.44569V15.0927C1.94444 16.1324 2.79013 16.9751 3.83333 16.9751H15.1667C16.2099 16.9751 17.0556 16.1324 17.0556 15.0927V9.44569M1.94444 9.44569H7.61111M6.66667 3.79863V2.85745C6.66667 1.81786 7.51235 0.975098 8.55556 0.975098H10.4444C11.4877 0.975098 12.3333 1.81786 12.3333 2.85745V3.79863M6.66667 3.79863H12.3333M17.0556 9.44569H18V5.68098C18 4.64138 17.1543 3.79863 16.1111 3.79863H12.3333M17.0556 9.44569H11.3889M7.61111 9.44569V7.56333H11.3889V9.44569M7.61111 9.44569V11.328H11.3889V9.44569" stroke="#0D0D0F" stroke-width="1.2" stroke-linecap="round" stroke-linejoin="round"/>
</svg>
