<svg width="14" height="16" viewBox="0 0 14 16" fill="none" xmlns="http://www.w3.org/2000/svg">
<path d="M13.4811 0.955505H0.5C0.5 2.03287 0.500013 2.49459 1.17875 3.57195H12.9721C13.6508 2.49459 13.4811 1.64809 13.4811 0.955505Z" stroke="#0D0D0F" stroke-width="0.917222"/>
<path d="M12.4797 4.88239H1.51758C1.7045 5.34411 2.09903 6.42449 2.38327 7.03711H11.6082C12.0555 5.95975 12.3101 5.49802 12.4797 4.88239Z" stroke="#0D0D0F" stroke-width="0.917222"/>
<path d="M11.5296 8.34735H2.53613C2.68949 8.80908 3.01316 9.88945 3.24636 10.5021H10.8146C11.1816 9.42471 11.3904 8.96299 11.5296 8.34735Z" stroke="#0D0D0F" stroke-width="0.917222"/>
<path d="M10.172 11.8124H3.89355C4.14809 12.505 4.91168 14.121 5.42075 15.0445H8.81451C9.57811 13.4284 9.91749 12.6589 10.172 11.8124Z" stroke="#0D0D0F" stroke-width="0.917222"/>
<path d="M7.11388 12.087V12.4781H6.90707V12.087H7.11388ZM7.08869 14.2519V14.6085H6.88188V14.2519H7.08869ZM7.23452 13.8171C7.23452 13.7667 7.22524 13.7238 7.20668 13.6885C7.189 13.6531 7.15984 13.6218 7.11918 13.5944C7.07941 13.567 7.0255 13.5404 6.95745 13.5148C6.84255 13.4706 6.74136 13.4238 6.65386 13.3743C6.56725 13.3239 6.49964 13.2616 6.45103 13.1874C6.40243 13.1122 6.37812 13.0172 6.37812 12.9023C6.37812 12.7928 6.40419 12.6977 6.45634 12.6173C6.50848 12.5369 6.58051 12.475 6.67242 12.4317C6.76522 12.3875 6.87304 12.3654 6.99589 12.3654C7.08957 12.3654 7.17442 12.3796 7.25042 12.4079C7.32643 12.4353 7.39183 12.4759 7.44663 12.5298C7.50142 12.5829 7.5434 12.6478 7.57257 12.7247C7.60173 12.8016 7.61631 12.8895 7.61631 12.9885H7.23584C7.23584 12.9355 7.2301 12.8886 7.21861 12.848C7.20712 12.8073 7.19033 12.7733 7.16823 12.7459C7.14702 12.7185 7.12139 12.6982 7.09134 12.6849C7.06129 12.6708 7.02815 12.6637 6.99191 12.6637C6.938 12.6637 6.89381 12.6743 6.85935 12.6955C6.82488 12.7168 6.79969 12.7455 6.78378 12.7817C6.76876 12.8171 6.76124 12.8577 6.76124 12.9037C6.76124 12.9487 6.7692 12.9881 6.78511 13.0217C6.8019 13.0552 6.83062 13.0862 6.87128 13.1145C6.91193 13.1419 6.96761 13.1701 7.03831 13.1993C7.15321 13.2435 7.25396 13.2912 7.34057 13.3425C7.42718 13.3937 7.49479 13.4565 7.5434 13.5307C7.59201 13.605 7.61631 13.6995 7.61631 13.8144C7.61631 13.9284 7.5898 14.0256 7.53677 14.1061C7.48375 14.1856 7.40951 14.2466 7.31406 14.289C7.21861 14.3306 7.10813 14.3513 6.98264 14.3513C6.90133 14.3513 6.82046 14.3407 6.74003 14.3195C6.65961 14.2974 6.5867 14.2621 6.5213 14.2135C6.45589 14.1648 6.40375 14.1003 6.36486 14.0199C6.32598 13.9386 6.30653 13.8387 6.30653 13.7203H6.68833C6.68833 13.7848 6.69673 13.8387 6.71352 13.882C6.73031 13.9245 6.75241 13.9585 6.7798 13.9841C6.80809 14.0089 6.8399 14.0265 6.87525 14.0371C6.91061 14.0477 6.9464 14.053 6.98264 14.053C7.0392 14.053 7.0856 14.0429 7.12183 14.0226C7.15895 14.0022 7.18679 13.9744 7.20535 13.939C7.22479 13.9028 7.23452 13.8621 7.23452 13.8171Z" fill="#0D0D0F"/>
</svg>
