<svg width="20" height="19" viewBox="0 0 20 19" fill="none" xmlns="http://www.w3.org/2000/svg">
<path fill-rule="evenodd" clip-rule="evenodd" d="M16.4564 14.6959V13.0663C16.4564 12.6628 16.6167 12.2758 16.902 11.9904L18.0544 10.8381C18.6485 10.2439 18.6485 9.28051 18.0544 8.68636L16.902 7.534C16.6167 7.24866 16.4564 6.86166 16.4564 6.45813V4.82734C16.4564 3.98704 15.7752 3.30584 14.9349 3.30584H13.3041C12.9006 3.30584 12.5136 3.14553 12.2282 2.8602L11.0759 1.70784C10.4817 1.11366 9.51831 1.11366 8.92416 1.70784L7.7718 2.8602C7.48644 3.14553 7.09945 3.30584 6.69593 3.30584H5.06514C4.6614 3.30584 4.27421 3.46631 3.98884 3.75191C3.70347 4.03751 3.54332 4.42482 3.54363 4.82856V6.45813C3.54363 6.86166 3.38332 7.24866 3.09799 7.534L1.94563 8.68636C1.35146 9.28051 1.35146 10.2439 1.94563 10.8381L3.09799 11.9904C3.38332 12.2758 3.54363 12.6628 3.54363 13.0663V14.6959C3.54363 15.5362 4.22484 16.2174 5.06514 16.2174H6.69593C7.09945 16.2174 7.48644 16.3777 7.7718 16.663L8.92416 17.8154C9.51831 18.4095 10.4817 18.4095 11.0759 17.8154L12.2282 16.663C12.5136 16.3777 12.9006 16.2174 13.3041 16.2174H14.9337C15.3374 16.2177 15.7247 16.0576 16.0103 15.7721C16.2959 15.4867 16.4564 15.0996 16.4564 14.6959Z" stroke="#0D0D0F" stroke-width="1.2" stroke-linecap="round" stroke-linejoin="round"/>
<path fill-rule="evenodd" clip-rule="evenodd" d="M6.70035 8.11168C6.36658 7.77799 6.26673 7.27608 6.44734 6.84002C6.62796 6.40395 7.05344 6.11963 7.52544 6.11963C7.99743 6.11963 8.42292 6.40395 8.6036 6.84002C8.78417 7.27608 8.68435 7.77799 8.35054 8.11168C7.89482 8.5674 7.15605 8.5674 6.70035 8.11168Z" stroke="#0D0D0F" stroke-width="1.2" stroke-linecap="round" stroke-linejoin="round"/>
<path fill-rule="evenodd" clip-rule="evenodd" d="M11.6493 13.063C11.3154 12.7292 11.2156 12.2273 11.3962 11.7912C11.5769 11.3551 12.0024 11.0708 12.4744 11.0708C12.9464 11.0708 13.3718 11.3551 13.5524 11.7912C13.7331 12.2273 13.6332 12.7292 13.2995 13.063C12.8438 13.5186 12.105 13.5186 11.6493 13.063Z" stroke="#0D0D0F" stroke-width="1.2" stroke-linecap="round"/>
<path d="M13.3009 6.46045L6.69882 13.0637" stroke="#0D0D0F" stroke-width="1.2" stroke-linecap="round"/>
</svg>
