<svg width="20" height="19" viewBox="0 0 20 19" fill="none" xmlns="http://www.w3.org/2000/svg">
<path fill-rule="evenodd" clip-rule="evenodd" d="M16.4564 14.1715V12.5419C16.4564 12.1384 16.6167 11.7514 16.902 11.466L18.0544 10.3137C18.6485 9.71952 18.6485 8.7561 18.0544 8.16195L16.902 7.00959C16.6167 6.72424 16.4564 6.33725 16.4564 5.93372V4.30293C16.4564 3.46263 15.7752 2.78143 14.9349 2.78143H13.3041C12.9006 2.78143 12.5136 2.62112 12.2282 2.33578L11.0759 1.18342C10.4817 0.589249 9.51831 0.589249 8.92416 1.18342L7.7718 2.33578C7.48644 2.62112 7.09945 2.78143 6.69593 2.78143H5.06514C4.6614 2.78143 4.27421 2.9419 3.98884 3.2275C3.70347 3.5131 3.54332 3.90041 3.54363 4.30414V5.93372C3.54363 6.33725 3.38332 6.72424 3.09799 7.00959L1.94563 8.16195C1.35146 8.7561 1.35146 9.71952 1.94563 10.3137L3.09799 11.466C3.38332 11.7514 3.54363 12.1384 3.54363 12.5419V14.1715C3.54363 15.0117 4.22484 15.693 5.06514 15.693H6.69593C7.09945 15.693 7.48644 15.8532 7.7718 16.1386L8.92416 17.291C9.51831 17.8851 10.4817 17.8851 11.0759 17.291L12.2282 16.1386C12.5136 15.8532 12.9006 15.693 13.3041 15.693H14.9337C15.3374 15.6933 15.7247 15.5332 16.0103 15.2477C16.2959 14.9623 16.4564 14.5752 16.4564 14.1715Z" stroke="#FE4E44" stroke-width="1.2" stroke-linecap="round" stroke-linejoin="round"/>
<path fill-rule="evenodd" clip-rule="evenodd" d="M6.70035 7.58727C6.36658 7.25358 6.26673 6.75167 6.44734 6.3156C6.62796 5.87954 7.05344 5.59521 7.52544 5.59521C7.99743 5.59521 8.42292 5.87954 8.6036 6.3156C8.78417 6.75167 8.68435 7.25358 8.35054 7.58727C7.89482 8.04299 7.15605 8.04299 6.70035 7.58727Z" stroke="#FE4E44" stroke-width="1.2" stroke-linecap="round" stroke-linejoin="round"/>
<path fill-rule="evenodd" clip-rule="evenodd" d="M11.6493 12.5385C11.3154 12.2047 11.2156 11.7029 11.3962 11.2668C11.5769 10.8307 12.0024 10.5464 12.4744 10.5464C12.9464 10.5464 13.3718 10.8307 13.5524 11.2668C13.7331 11.7029 13.6332 12.2047 13.2995 12.5385C12.8438 12.9941 12.105 12.9941 11.6493 12.5385Z" stroke="#FE4E44" stroke-width="1.2" stroke-linecap="round"/>
<path d="M13.3009 5.93604L6.69882 12.5393" stroke="#FE4E44" stroke-width="1.2" stroke-linecap="round"/>
</svg>
