<svg width="18" height="18" viewBox="0 0 18 18" fill="none" xmlns="http://www.w3.org/2000/svg">
<path d="M1.41316 1.32275L0.594863 4.59679C0.478501 5.05558 0.469057 5.53497 0.567259 5.99799C0.66546 6.461 0.868683 6.89528 1.16126 7.26734C1.2342 7.34883 1.31159 7.42622 1.39307 7.49916V16.9651C1.39307 17.17 1.47448 17.3666 1.61939 17.5115C1.7643 17.6564 1.96084 17.7378 2.16578 17.7378H10.7776C10.9826 17.7378 11.1791 17.6564 11.324 17.5115C11.4689 17.3666 11.5503 17.17 11.5503 16.9651C11.5503 16.7601 11.4689 16.5636 11.324 16.4187C11.1791 16.2737 10.9826 16.1923 10.7776 16.1923H2.9354V8.38779C3.48368 8.51349 4.05602 8.48543 4.58938 8.30668C5.12273 8.12794 5.59641 7.80545 5.95824 7.37475C5.98142 7.40179 5.99764 7.43348 6.0216 7.45975C6.31351 7.77626 6.66774 8.02897 7.06202 8.20197C7.4563 8.37498 7.88211 8.46456 8.31268 8.46507H8.37682C8.80721 8.46464 9.23287 8.37518 9.62702 8.2023C10.0212 8.02943 10.3753 7.77687 10.6671 7.46052C10.6911 7.43425 10.7073 7.40179 10.7305 7.37475C11.0923 7.80552 11.5659 8.12806 12.0993 8.30681C12.6327 8.48556 13.205 8.51358 13.7533 8.38779V10.0105C13.7533 10.2155 13.8347 10.412 13.9796 10.5569C14.1246 10.7018 14.3211 10.7832 14.526 10.7832C14.731 10.7832 14.9275 10.7018 15.0724 10.5569C15.2173 10.412 15.2987 10.2155 15.2987 10.0105V7.5007C15.3802 7.42776 15.4576 7.35037 15.5306 7.26888C15.8231 6.89683 16.0264 6.46255 16.1246 5.99953C16.2228 5.53651 16.2133 5.05713 16.097 4.59834L15.2756 1.32275C15.2337 1.15565 15.1372 1.00733 15.0014 0.901345C14.8656 0.795363 14.6983 0.737797 14.526 0.737793H2.16269C1.99043 0.737797 1.82311 0.795363 1.68731 0.901345C1.55151 1.00733 1.45502 1.15565 1.41316 1.32275ZM13.9225 2.28325L14.5948 4.97157C14.6527 5.2027 14.6572 5.44399 14.6078 5.6771C14.5585 5.91021 14.4566 6.129 14.31 6.31682C14.1634 6.50465 13.9759 6.65656 13.7617 6.76102C13.5475 6.86547 13.3124 6.91971 13.0741 6.91961C12.6815 6.9175 12.3038 6.76903 12.0149 6.50323C11.7259 6.23743 11.5465 5.8734 11.5117 5.48234L11.2451 2.28325H13.9225ZM6.99135 2.28325H9.69583L9.94078 5.21961C9.95884 5.43597 9.93182 5.65371 9.86143 5.85909C9.79103 6.06447 9.67879 6.253 9.5318 6.41278C9.38481 6.57256 9.20627 6.7001 9.00746 6.78733C8.80866 6.87457 8.59392 6.91962 8.37682 6.91961H8.31268C8.0961 6.91969 7.88185 6.87487 7.68347 6.78798C7.48508 6.70109 7.30685 6.57402 7.16004 6.41479C7.01323 6.25556 6.90102 6.06762 6.83049 5.86284C6.75996 5.65806 6.73264 5.44089 6.75026 5.22502L6.99135 2.28325ZM5.44593 2.28325L5.43666 2.38679L5.21103 5.09134L5.17935 5.4777C5.1456 5.86986 4.96644 6.23523 4.67705 6.50204C4.38767 6.76884 4.00898 6.91778 3.61538 6.91961C3.37709 6.91968 3.14193 6.86542 2.92775 6.76097C2.71357 6.65653 2.52602 6.50463 2.37934 6.31683C2.23267 6.12903 2.13073 5.91027 2.08127 5.67716C2.03181 5.44406 2.03614 5.20275 2.09392 4.97157L2.76618 2.28325H5.44593ZM17.4422 14.1987C17.1486 15.7163 14.7957 17.0292 14.7957 17.0292C14.7957 17.0292 12.4428 15.7156 12.1492 14.1987C11.8586 12.7004 12.7125 11.9207 13.5941 11.9207C13.8297 11.9058 14.065 11.9535 14.2761 12.0592C14.4871 12.1648 14.6664 12.3244 14.7957 12.5219C14.925 12.3244 15.1043 12.1648 15.3154 12.0592C15.5264 11.9535 15.7617 11.9058 15.9973 11.9207C16.882 11.9207 17.732 12.7004 17.4422 14.1987Z" fill="#FE4E44"/>
</svg>
