<svg width="14" height="13" viewBox="0 0 14 13" fill="none" xmlns="http://www.w3.org/2000/svg">
<path d="M6.65149 1.01322C6.8311 0.460435 7.61315 0.460437 7.79276 1.01322L8.88353 4.37027C8.96385 4.61748 9.19423 4.78486 9.45416 4.78486H12.984C13.5652 4.78486 13.8069 5.52863 13.3366 5.87027L10.481 7.94503C10.2707 8.09782 10.1827 8.36864 10.263 8.61586L11.3538 11.9729C11.5334 12.5257 10.9007 12.9854 10.4305 12.6437L7.57479 10.569C7.3645 10.4162 7.07975 10.4162 6.86945 10.569L4.01378 12.6437C3.54355 12.9854 2.91087 12.5257 3.09048 11.9729L4.18125 8.61586C4.26157 8.36864 4.17358 8.09782 3.96328 7.94503L1.10761 5.87027C0.637381 5.52863 0.879048 4.78486 1.46028 4.78486H4.99009C5.25002 4.78486 5.4804 4.61748 5.56072 4.37027L6.65149 1.01322Z" fill="#FFA600"/>
</svg>
