<svg width="14" height="13" viewBox="0 0 14 13" fill="none" xmlns="http://www.w3.org/2000/svg">
<path d="M6.17005 1.01322C6.34966 0.460435 7.1317 0.460437 7.31131 1.01322L8.40208 4.37027C8.48241 4.61748 8.71278 4.78486 8.97272 4.78486H12.5025C13.0838 4.78486 13.3254 5.52863 12.8552 5.87027L9.99952 7.94503C9.78923 8.09782 9.70123 8.36864 9.78156 8.61586L10.8723 11.9729C11.0519 12.5257 10.4192 12.9854 9.94902 12.6437L7.09335 10.569C6.88306 10.4162 6.5983 10.4162 6.38801 10.569L3.53233 12.6437C3.06211 12.9854 2.42942 12.5257 2.60903 11.9729L3.6998 8.61586C3.78012 8.36864 3.69213 8.09782 3.48184 7.94503L0.626164 5.87027C0.155936 5.52863 0.397603 4.78486 0.978837 4.78486H4.50864C4.76858 4.78486 4.99895 4.61748 5.07928 4.37027L6.17005 1.01322Z" fill="#FFA600"/>
</svg>
