<svg width="21" height="22" viewBox="0 0 21 22" fill="none" xmlns="http://www.w3.org/2000/svg">
<path fill-rule="evenodd" clip-rule="evenodd" d="M2.00463 6.30414C3.02781 5.22532 3.39013 4.92271 3.82573 4.78294C4.12765 4.70353 4.44438 4.69886 4.7485 4.76937C5.14881 4.88607 5.2533 4.97428 6.56688 6.28108C7.7203 7.4291 7.83429 7.55395 7.94556 7.77378C8.16078 8.16946 8.19539 8.6386 8.04055 9.06151C7.92656 9.38041 7.75829 9.5921 7.05948 10.295L6.60352 10.7523C6.48356 10.8741 6.45512 11.059 6.53296 11.211C7.54511 12.9379 8.98082 14.3783 10.7044 15.396C10.9032 15.5027 11.1481 15.4681 11.3096 15.3105L11.7479 14.879C12.0188 14.6011 12.3056 14.3392 12.6069 14.0946C13.0794 13.8023 13.6693 13.7741 14.1674 14.02C14.4103 14.134 14.4918 14.2086 15.6819 15.3947C16.9032 16.616 16.9425 16.6553 17.0796 16.9362C17.3355 17.4015 17.3329 17.966 17.0728 18.4289C16.9371 18.6895 16.8611 18.7845 16.1717 19.4887C15.7551 19.9148 15.3575 20.3029 15.3005 20.3599C14.7313 20.8306 14.0015 21.0617 13.265 21.0045C11.9178 20.8813 10.614 20.4644 9.44505 19.7832C6.85434 18.4106 4.64896 16.4105 3.03053 13.9657C2.67661 13.4547 2.36179 12.9176 2.08876 12.359C1.36129 11.1119 0.985193 9.69103 1.00045 8.24738C1.05516 7.48952 1.41809 6.78718 2.00463 6.30414Z" stroke="black" stroke-width="1.3" stroke-linecap="round" stroke-linejoin="round"/>
<path d="M13.6767 1.04742C13.1476 0.857529 12.5649 1.13247 12.375 1.66153C12.1851 2.19057 12.46 2.77338 12.9891 2.96326L13.6767 1.04742ZM19.0303 8.90327C19.2291 9.42911 19.8164 9.69413 20.3422 9.49533C20.8679 9.29653 21.1331 8.70923 20.9343 8.18346L19.0303 8.90327ZM12.0645 4.06992C11.5161 3.9461 10.9713 4.29018 10.8475 4.83847C10.7236 5.38675 11.0678 5.93161 11.616 6.05543L12.0645 4.06992ZM16.0215 10.3881C16.1545 10.9343 16.705 11.2692 17.2511 11.1362C17.7973 11.0032 18.1322 10.4528 17.9993 9.90664L16.0215 10.3881ZM12.9891 2.96326C15.7753 3.96331 17.9833 6.13432 19.0303 8.90327L20.9343 8.18346C19.6766 4.85694 17.0241 2.24881 13.6767 1.04742L12.9891 2.96326ZM11.616 6.05543C13.7881 6.54598 15.4948 8.22451 16.0215 10.3881L17.9993 9.90664C17.2898 6.992 14.9905 4.73075 12.0645 4.06992L11.616 6.05543Z" fill="black"/>
</svg>
