<svg width="22" height="22" viewBox="0 0 22 22" fill="none" xmlns="http://www.w3.org/2000/svg">
<path d="M11 21C16.5228 21 21 16.5228 21 11C21 5.47715 16.5228 1 11 1C5.47716 1 1 5.47715 1 11C1 16.5228 5.47716 21 11 21Z" stroke="black" stroke-width="1.3" stroke-linecap="round" stroke-linejoin="round"/>
<path d="M14.8155 7.17272C13.8043 6.15827 12.4317 5.58666 10.9993 5.5835C10.1107 5.5833 9.23564 5.80224 8.45175 6.2209C7.66786 6.63955 6.99929 7.24498 6.50522 7.98366C6.01114 8.72231 5.70676 9.5715 5.61912 10.4558C5.53148 11.3401 5.66327 12.2325 6.00275 13.0538C6.34222 13.8751 6.87898 14.6 7.56545 15.1644C8.25192 15.7287 9.06688 16.1152 9.93834 16.2894C10.8098 16.4636 11.7107 16.4203 12.5614 16.1633C13.4122 15.9063 14.1863 15.4435 14.8155 14.8159" stroke="black" stroke-width="1.3" stroke-linecap="round" stroke-linejoin="round"/>
</svg>
